<?xml version="1.0" encoding="utf-8"?>
<!-- Generator: Adobe Adobe Illustrator 24.2.0, SVG Export Plug-In . SVG Version: 6.00 Build 0)  -->
<svg version="1.1" id="Layer_1" xmlns="http://www.w3.org/2000/svg" xmlns:xlink="http://www.w3.org/1999/xlink" x="0px" y="0px"
	 width="100px" height="100px" viewBox="0 0 100 100" style="enable-background:new 0 0 100 100;" xml:space="preserve">
<style type="text/css">
	.st0{fill:#FFFFFF;}
</style>
<g>
	<path d="M21.5,73.8V26.2h25.2l1.12,5.6H63.5v28H43.9l-1.12-5.6H27.1v19.6H21.5z M48.52,54.2h9.38V37.4H43.2l-1.12-5.6H27.1v16.8
		h20.3L48.52,54.2z"/>
</g>
<g>
	<path d="M65.75,46.09c-3.89,0-7.23-1.37-9.93-4.07s-4.07-6.04-4.07-9.93c0-3.67,1.24-7.2,3.68-10.47c2.37-3.18,5.61-5.89,9.61-8.04
		l2.21-1.19v7.67c0,0.48,0.14,0.84,0.47,1.15c0.33,0.33,0.7,0.47,1.2,0.47c0.24,0,0.46-0.05,0.66-0.14c0.2-0.1,0.38-0.25,0.56-0.47
		l1.51-1.85l1.1,0.62c2.16,1.22,3.88,2.95,5.13,5.13c1.25,2.17,1.88,4.57,1.88,7.11c0,3.89-1.37,7.23-4.07,9.93
		S69.64,46.09,65.75,46.09z M64.57,37.38c-0.14,0.14-0.26,0.31-0.34,0.5c-0.08,0.18-0.11,0.35-0.11,0.54c0,0.43,0.14,0.76,0.47,1.08
		c0.33,0.33,0.69,0.47,1.16,0.47s0.83-0.15,1.16-0.47c0.32-0.32,0.47-0.65,0.47-1.08c0-0.21-0.03-0.38-0.1-0.54
		c-0.08-0.18-0.2-0.35-0.35-0.51l-1.17-1.15L64.57,37.38z M71.22,33.02c0.73,0.73,1.29,1.54,1.67,2.42
		c0.02-0.04,0.03-0.07,0.05-0.11c0.46-1.01,0.69-2.1,0.69-3.23c0-1.1-0.2-2.15-0.61-3.12c-0.27-0.64-0.62-1.24-1.04-1.8
		c-0.29,0.12-0.58,0.23-0.88,0.32c-0.71,0.21-1.44,0.32-2.18,0.32c-1.99,0-3.74-0.67-5.2-1.99c-0.76-0.68-1.36-1.46-1.78-2.32
		c-0.29,0.3-0.56,0.6-0.81,0.9c-0.72,0.85-1.33,1.72-1.81,2.58c-0.47,0.84-0.83,1.71-1.07,2.58c-0.24,0.85-0.36,1.71-0.36,2.53
		c0,1.13,0.23,2.22,0.69,3.23c0.02,0.04,0.03,0.07,0.05,0.11c0.39-0.88,0.94-1.69,1.66-2.41l5.47-5.38L71.22,33.02z"/>
	<path class="st0" d="M65.75,14.91v5.16c0,0.89,0.31,1.63,0.92,2.23c0.61,0.6,1.36,0.9,2.25,0.9c0.47,0,0.9-0.1,1.31-0.29
		c0.4-0.2,0.76-0.49,1.07-0.88l0.7-0.86c1.93,1.09,3.45,2.62,4.57,4.57c1.12,1.95,1.68,4.08,1.68,6.37c0,3.49-1.21,6.45-3.63,8.87
		c-2.42,2.42-5.38,3.63-8.87,3.63c-3.49,0-6.45-1.21-8.87-3.63c-2.42-2.42-3.63-5.38-3.63-8.87c0-3.36,1.13-6.55,3.38-9.57
		C58.88,19.5,61.92,16.96,65.75,14.91 M59.54,39.12c-0.03-0.13-0.04-0.25-0.04-0.35v-0.35c0-0.83,0.16-1.61,0.47-2.34
		c0.31-0.73,0.77-1.39,1.37-1.99l4.41-4.34l4.41,4.34c0.6,0.6,1.05,1.26,1.37,1.99c0.31,0.73,0.47,1.51,0.47,2.34v0.35
		c0,0.1-0.01,0.22-0.04,0.35c1.02-0.91,1.8-1.97,2.34-3.18c0.55-1.21,0.82-2.49,0.82-3.85c0-1.3-0.24-2.53-0.72-3.69
		c-0.48-1.16-1.18-2.19-2.09-3.11c-0.52,0.34-1.07,0.59-1.64,0.76c-0.57,0.17-1.16,0.25-1.76,0.25c-1.61,0-3.01-0.53-4.2-1.6
		c-1.18-1.07-1.87-2.38-2.05-3.95c-1.02,0.86-1.91,1.75-2.7,2.68c-0.78,0.92-1.44,1.86-1.97,2.81c-0.53,0.95-0.94,1.92-1.21,2.91
		c-0.27,0.99-0.41,1.97-0.41,2.93c0,1.35,0.27,2.64,0.82,3.85C57.74,37.15,58.52,38.21,59.54,39.12 M65.75,41.47
		c0.86,0,1.6-0.3,2.21-0.9c0.61-0.6,0.92-1.32,0.92-2.15c0-0.42-0.08-0.8-0.23-1.15c-0.16-0.35-0.38-0.67-0.66-0.96l-2.23-2.19
		l-2.23,2.19c-0.29,0.29-0.51,0.61-0.66,0.98c-0.16,0.36-0.23,0.74-0.23,1.13c0,0.83,0.31,1.55,0.92,2.15
		C64.15,41.17,64.89,41.47,65.75,41.47 M68.75,9.89l-4.42,2.38c-4.2,2.26-7.6,5.11-10.11,8.47c-2.64,3.54-3.97,7.36-3.97,11.36
		c0,4.3,1.52,7.99,4.51,10.99c2.99,2.99,6.69,4.51,10.99,4.51s7.99-1.52,10.99-4.51c2.99-2.99,4.51-6.69,4.51-10.99
		c0-2.81-0.7-5.46-2.08-7.86c-1.39-2.42-3.3-4.33-5.69-5.69l-2.2-1.25l-1.6,1.96l-0.7,0.86c-0.03,0.03-0.05,0.06-0.06,0.07
		c-0.07,0-0.1-0.01-0.11-0.01c0,0-0.01-0.01-0.04-0.03c0,0,0,0,0,0c-0.01,0-0.01-0.03-0.01-0.08v-5.16V9.89L68.75,9.89z M59.38,31.8
		c0.02-0.6,0.12-1.22,0.3-1.84c0.21-0.75,0.52-1.51,0.93-2.24c0.33-0.58,0.71-1.16,1.16-1.74c0.28,0.33,0.59,0.65,0.93,0.96
		c0.29,0.26,0.59,0.5,0.89,0.72L59.38,31.8L59.38,31.8z M69.56,29.29c0.61-0.04,1.21-0.15,1.8-0.31c0.1,0.19,0.19,0.38,0.27,0.57
		c0.3,0.71,0.46,1.45,0.49,2.25L69.56,29.29L69.56,29.29z M65.65,38.44l0.1-0.1l0.1,0.1c-0.02,0.02-0.04,0.03-0.04,0.03c0,0,0,0,0,0
		c-0.01,0-0.03,0-0.06,0c-0.04,0-0.06,0-0.07,0C65.68,38.46,65.67,38.45,65.65,38.44L65.65,38.44z"/>
</g>
</svg>
